<?xml version="1.0" encoding="UTF-8"?>
<svg id="Layer_1" data-name="Layer 1" xmlns="http://www.w3.org/2000/svg" viewBox="0 0 471 541.82">
  <defs>
    <style>
      .cls-1 {
        fill: none;
        stroke: #000;
        stroke-linecap: round;
        stroke-linejoin: round;
        stroke-width: 2px;
      }
    </style>
  </defs>
  <path class="cls-1" d="M16.39,26.27c-1.32-4.74-.54-10.42-5.68-12.74.81-4.34,1.53-8.17,2.34-12.51,1.2,0,2.73-.04,4.26,0,19.13.6,38.26,1.25,57.39,1.82,12.55.37,25.1.65,37.65.92,15.76.34,31.52.69,47.29.9,10.56.14,21.12.03,32.14.03v170.22c11.24,9.75,22.41,19.38,33.51,29.09,30.93,27.07,61.8,54.22,92.76,81.26,25.82,22.56,51.74,44.99,77.57,67.53,15.04,13.12,29.97,26.36,45.03,39.45,2.95,2.56,4.25,5.41,3.22,9.26,8.43,9.96,12.94,16.84,14.07,23.54,4.66,3.31,10.22,4.72,12.09,10.88-3.72,2.9-7.17,5.54-10.57,8.26-1.01.81-2.15,1.67-2.71,2.77-1.48,2.91-2.67,5.96-4.22,9.54.52,3.43,1.18,7.76,1.89,12.41-.15.1-.77.54-1.53,1.08,2.51,5.98-2.32,10.09-4.12,15.1-1.09.38-2.33.82-2.96,1.04-.2,2.33-.38,4.32-.59,6.7.4.16,1.35.55,2.62,1.06-.41,2.82-.98,5.7-1.16,8.61-.06,1.04.83,2.14,1.29,3.21"/>
  <path class="cls-1" d="M448.86,506.62c2.28.25,4.57.51,7.18.8.38.7.94,1.8,1.55,2.87,3.21,5.66-1.52,13.98-7.8,14.34-4.16.24-8.25,1.56-12.41,2.17-6.1.89-12.25,1.47-18.36,2.35-7.82,1.13-15.6,2.5-23.42,3.62-5.18.75-10.41,1.16-15.6,1.88-8.27,1.15-16.52,2.5-24.8,3.63-5.49.75-11.01,1.27-16.53,1.85-2.56.27-5.13.44-8.05.69.53-3.28.88-5.42,1.28-7.85-2.23-.57-4.43-1.14-7.06-1.82.4-1.2.69-2.08.98-2.95"/>
  <path class="cls-1" d="M6.29,74.95c-1.68,3.83-3.6,7.58-4.95,11.52-.61,1.78-.24,3.96-.06,5.93.19,2.09.69,4.16.33,6.5,8.79,7.49,15.33,17.17,21.33,26.94,1.02,5.03,2.01,9.91,3.08,15.18-5.34,7.41-2.6,15.48.28,22.92,1.75,4.52,1.9,8.06-.72,12.35,4.02,4.23,8.03,8.35,11.91,12.57,1.11,1.2,1.74,2.83,2.81,4.09,2.53,2.97,4.83,6.3,7.87,8.63,3.71,2.84,6.29,5.99,6.49,9.24,3.81,5.83,6.88,10.52,9.95,15.22l14.47,18.87c.32,3.02.76,5.93-.53,9.21-.6,1.52.07,3.53,1.37,5.63,2.57,4.15,4.83,9.2,1.8,14.83,4.57,6.23,8.62,12.96,15.84,16.82,2.29-.63,4.44-1.21,7.48-2.04,1.83,3.14,3.89,6.65,5.86,10.01-2.45,3.6-.18,9.17-4.96,11.63-.61-.61-1.23-1.23-2.01-2.01-.64.95-1.26,1.87-1.63,2.42.97,4.78,2.25,9.04,2.59,13.38.26,3.31,1.91,5.24,4.28,6.85,3.9,2.65,7.17,5.7,9.28,10.07.83,1.72,4.12,2.69,4.27,4.21.69,6.88,8.12,9.87,8.99,16.5.11.83,1.04,2.06,1.79,2.22,6.65,1.47,7.88,8.42,12.7,11.9,1.4.41,3.07.91,4.84,1.43,2.26,3.43,1.75,6.8-.33,10.06,2.15,5.56,8.11,4.3,12.44,7-.44,4.2-.88,8.32-1.31,12.44.25-.02.49-.04.74-.06.45,4.17.9,8.33,1.44,13.39-.39,1.39-1.1,3.86-1.53,5.4,3.24,2.72,6.06,5.09,9.45,7.94,7.18-.5,15.56-2.4,24.04,1.16,3.74,1.58,8.05,1.97,12.36,1.18,2.02-.37,4.67-.14,6.33.92,5.13,3.28,10.91,5.21,14.18,11.65,2.87,5.66,10.35,6.34,16.19,8.45,4.46,1.6,8.94.16,13.3-.23,3.62-.32,5.75.7,7.32,3.46,1.49,2.61,2.63,5.43,4,8.32-.72.97-1.37,1.85-2.53,3.4,2.07,1,4.1,1.98,5.56,2.69,3.19-1.28,5.62-2.26,8.42-3.39,2.11,2.03,3.95,4.23,6.2,5.89,5.4,3.98,11.11,7.54,16.46,11.57,9.77,7.34,17.52,16.29,20.61,28.46.55,2.16.08,4.57.08,6.87-.58.27-1.15.54-1.73.8.88.5,1.77.99,2.65,1.49"/>
  <path class="cls-1" d="M17.3,27.19c-.77,5.97-1.08,12.05-2.45,17.87-.92,3.91-3.73,6.92-1.12,11.72,1.2,2.21-1.49,6.53-2.38,9.91-.11.43-.02.91-.02,1.37"/>
  <path class="cls-1" d="M12.71,65.77c.78.26,1.56.53,3.55,1.2-2.62.94-4.23,1.52-6.18,2.23-.71,1.41-1.56,3.12-2.42,4.84"/>
</svg>