<?xml version="1.0" encoding="UTF-8"?>
<svg id="Layer_1" data-name="Layer 1" xmlns="http://www.w3.org/2000/svg" viewBox="0 0 370 576">
  <defs>
    <style>
      .cls-1 {
        fill: none;
        fill-rule: evenodd;
        stroke: #231f20;
        stroke-miterlimit: 10;
      }
    </style>
  </defs>
  <path class="cls-1" d="M.5.5h369v471h-1c-2.6,1.72-6.15,1.47-9.5,2.5-4.68,1.44-10.26,3.15-15,4.5-3.17.9-7.54.47-9,3-2.27,3.12-2.22,7.98-3.5,12-1.33,4-2.67,8-4,12-1.03,4.62,3.36,14.7,4.5,18.5,2.49,8.31,3,15.71,5.5,24,2.52,8.36,6.43,17.95,7,27.5h-.5c-1.77-2.64-4.78-4.28-7-6.5-7.78-7.78-15.76-15.17-24-22.5-16.25-14.45-30.53-31.26-47.5-45-6.56-5.31-11.66-12.33-18.5-17.5-2.17-2.33-4.33-4.67-6.5-7-3.72-3.69-7.8-7.32-12-10.5-3.39-2.56-5.7-6.83-9-9.5-20.13-16.31-36.33-37.38-57-53-1.67-1.83-3.33-3.67-5-5.5-4.03-4.03-8.43-8.05-13-11.5-2.67-2.83-5.33-5.67-8-8.5-7.04-6.26-13.48-13.32-21-19-2-2.17-4-4.33-6-6.5-4.21-4.17-8.75-8.41-13.5-12-2.5-2.67-5-5.33-7.5-8-4.58-3.46-8.96-7.46-13-11.5-1.67-1.83-3.33-3.67-5-5.5-16.97-12.83-30.68-29.92-46.5-44-6.03-5.37-11.59-11.09-17.5-16.5-1.59-1.45-5.12-3.04-6-5V.5Z"/>
</svg>