<?xml version="1.0" encoding="UTF-8"?>
<svg id="Layer_1" data-name="Layer 1" xmlns="http://www.w3.org/2000/svg" viewBox="0 0 433.8 207.06">
  <defs>
    <style>
      .cls-1 {
        fill: none;
        fill-rule: evenodd;
        stroke: #231f20;
        stroke-miterlimit: 10;
      }
    </style>
  </defs>
  <path class="cls-1" d="M410.78.5c1.07,22.17,4.56,43.98,9.5,63,3.16,12.19,4.21,24.71,7,36.5,2,35,4,70,6,105h-1c-2.39-2.19-5.01-1.04-8.5-2.5-1.37-.57-2.86-2.52-4.5-3h-5c-2.6-1.14-4.69-4.75-7.5-6-1.33-.17-2.67-.33-4-.5-2.29-1.12-4.3-5.6-8-4-6,1.36-12.36,9.65-19.5,2-2.49,1.17-9.59,4.49-12,5-2.42.51-2.85-2.25-5.5-1.5-.83.83-1.67,1.67-2.5,2.5h-6.5c-4.57,1.63-1.38,5.41-10,5.5-.53.95-1.24,2.23-2,3-1.99-2.79-5.61-2.08-8.5-4-3.13-2.08-2.9-6.15-8-6.5-.93,1.62-1.78,3.54-4,4-1.41-.9-3.33-.52-5.5-.5-1.43-3.18-2.56-5.13-7.5-5-1.73,3.24-4.01,11.1-7.5,12.5-.54.38-.47.3-1.5.5-.64-1.04-1.04-1.15-1.5-2.5-.85-1.47.38-4.2.5-7-1.14-.61-1.13-.82-3-1-1.6,2.37-1.44,1.38-4.5,1-.65,2.7-2.19,3.93-5.5,4-.72-1.96-.95-3.27-3-4-1.24-.8-3.71-.32-4.5-.5-1.18-2.85-2.53-3.6-4.5-5.5-.17.17-.33.33-.5.5-5.39,1.59-5.15,7.87-13,9-.51-.4-.14-.18-1-.5-.28-.8-.4-1.2-.5-2.5,3.46-2.98-1.97-5.79-6-5.5-2.58-3.81-2.02-2.5-1.5-7.5-1.36-.85-1.25-1.27-3.5-1.5-.73,1.14-1.05,1.5-2.5,2-1.61-2.36-4.93-2.14-9-2-.61,1.49-1.02,3.26-2.5,4-.71.48-1.64.49-3,.5-1.96-3.35-3.28-4.69-9-4.5-5.64,4.46-10.71-1.83-15-3-1.17-.32-2.61.43-3,.5-2.36.43-6.91-.78-8.5-1.5-.24-2.1-.5-4.32-.5-7-3.41-2.28-5.15-4.91-11-5-.79,1.25-1.43,1.97-3,2.5-3.79-3.08-5.92.66-9.5,1.5-1.68-2.94-4.88-1.31-7-3.5-.17-1-.33-2-.5-3-1.64-3.97-4.16-5.56-10-5.5V41c-5.98-2-16.48-.54-23.5-.5-41.16-1-82.34-2-123.5-3-1.35-4-.54-11.09-.5-16,1.61-2.55.91-11.89,1-15,9.51-.03,23.22-.4,32,1.5,3.57.77,8.55-.14,11.5.5,8.79,1.9,20.5-.84,29,1,12.33.17,24.67.33,37,.5,8.13,1.74,19.44.43,28.5.5,6.7.05,15.92,1.42,22.5,0,22.5-.17,45-.33,67.5-.5,4.84-1.05,11.82-.31,17.5-.5,3.78-.13,10.37-.21,14-1,5.32-1.15,12.3.52,17-.5,3.26-.7,7.87.07,10.5-.5h11.5c9.62-2.09,21.01.05,30.5-2h9.5c9.65-2.1,21.45.18,31.5-2,6.54-1.42,14.08,0,21-1.5,5.52-1.2,11.65-1.46,18-1.5Z"/>
</svg>