<?xml version="1.0" encoding="UTF-8"?>
<svg id="Layer_1" xmlns="http://www.w3.org/2000/svg" version="1.1" viewBox="0 0 570 563">
  <!-- Generator: Adobe Illustrator 29.1.0, SVG Export Plug-In . SVG Version: 2.1.0 Build 142)  -->
  <defs>
    <style>
      .st0 {
        fill: none;
        fill-rule: evenodd;
        stroke: #000;
        stroke-linecap: round;
        stroke-linejoin: round;
        stroke-width: 3px;
      }
    </style>
  </defs>
  <path class="st0" d="M29.57,268.45c-1.48-.93-3.37-2.25-4.69-4.14-1.32-1.89-2.08-4.34-2.83-6.3-.76-1.95-1.51-3.4-2.68-4.19-1.17-.79-2.74-.91-4.16-1.2-1.42-.28-2.68-.72-3.87-1.7-1.2-.98-2.33-2.49-2.86-3.78-.54-1.29-.47-2.36-.28-3.18.19-.82.5-1.39.47-2.05-.03-.66-.41-1.42-.54-1.73-.13-.31,0-.19,25.09-.19s75.14-.13,100.2-.22c25.06-.09,25.12-.16,25.22-.69.09-.54.22-1.54.16-7.11-.06-5.57-.31-15.71-.38-53.38-.06-37.67.06-102.89.13-135.49q.06-32.61.94-32.61h125.67c.83,0,2.49,0,3.32.21.83.21.82.64.45,16.88-.36,16.24-1.08,48.28-1.44,64.48-.36,16.2-.37,16.54-.38,17.17-.01.63-.04,1.54.4,1.5.43-.05,1.31-1.05,2.24-1.29.93-.24,1.9.3,2.88,1.37.98,1.07,1.95,2.68,3.45,4.39,1.5,1.72,3.51,3.54,4.93,4.34,1.42.8,2.24.58,2.75.24.52-.35.74-.82,1.09-1.34.35-.52.82-1.09,1.92-.91,1.1.17,2.83,1.09,3.95,1.61,1.12.52,1.62.65,2.05.22.42-.42.77-1.4.94-2.22.17-.82.17-1.48.49-1.56.31-.08.94.42,1.34.85.39.42.55.77,1.04.91.49.14,1.31.08,1.91.39.6.31.98,1.01,1.35,1.67.38.66.75,1.29.98,2.11.22.82.28,1.83.49,2.9.21,1.07.55,2.2,1.13,2.86.58.66,1.4.85,2.66.99,1.26.14,2.96.24,4.17.11,1.21-.13,1.94-.47,2.79-.27.85.2,1.83.96,2.88,1.49,1.05.54,2.19.85,3.04,1.04.85.19,1.42.25,1.98.42.57.17,1.13.46,1.93.27.8-.19,1.84-.85,2.88-.88,1.04-.03,2.08.57,2.9,1.35.82.79,1.42,1.76,2.39,2.28.98.52,2.33.58,3.31-.14.98-.72,1.57-2.23,2.42-2.99.85-.76,1.95-.76,2.94-.46.99.3,1.87.9,3.07.94,1.2.05,2.71-.46,3.95-.52,1.24-.06,2.22.31,2.46,1.05.24.74-.27,1.84-.44,2.74-.17.9-.02,1.59.46,2.28.47.69,1.26,1.39,2.25,1.62.99.24,2.19.02,2.77.31.58.3.55,1.12.41,1.95s-.39,1.68-.09,2.38c.3.69,1.15,1.23,2.3,1.39,1.15.16,2.6-.06,3.9-.99,1.31-.93,2.47-2.57,3.7-3.49,1.23-.93,2.52-1.15,3.64-.87,1.12.28,2.06,1.07,2.69,1.83.63.76.94,1.48,1.54,1.61.6.13,1.48-.35,2.25-.16.77.19,1.43,1.04,1.98,2,.55.96.99,2.03,1.79,2.28.8.25,1.97-.31,3.08-.94,1.12-.63,2.19-1.32,3.18-1.94.99-.61,1.9-1.15,2.5-.83.6.31.88,1.48.85,2.75-.03,1.27-.38,2.66-.22,3.81.16,1.15.82,2.06,1.62,2.08.8.02,1.75-.87,2.22-1.79.47-.93.47-1.9.91-2.6.44-.69,1.32-1.1,1.94-1.86.61-.76.96-1.86,1.18-2.71.22-.85.31-1.45.84-1.82.53-.37,1.49-.51,2.28-.2.79.31,1.42,1.06,1.79,1.89.36.83.46,1.72.96,2.08.5.35,1.42.17,2.21.42.79.25,1.47.94,2.11,1.26.64.31,1.24.25,1.62-.31.39-.56.56-1.61,1.12-2.28.56-.67,1.5-.95,2.24-.9.73.06,1.25.45,1.28,1.07.03.62-.42,1.47-.5,2.05-.07.58.24.9.86,1.13.61.24,1.53.39,2.13.54.61.14.91.27,1.15.71.24.44.43,1.2.96,1.47.53.28,1.39.07,2.04.06.65,0,1.07.18,1.53.78.46.6.94,1.61,1.5,2.23.55.62,1.16.86,1.61.63.45-.23.73-.92.92-1.65.19-.73.28-1.5.65-1.75.37-.25,1.01.02,1.57.25.56.24,1.03.44,1.54.35.5-.09,1.04-.46,1.47-1.13.43-.66.76-1.61,1.04-2.25.28-.64.5-.99.98-1.12.49-.13,1.24-.03,1.95-.02.71.02,1.37-.05,2.08-.23.71-.18,1.46-.48,2.34-.8.87-.32,1.87-.67,2.89-.53,1.02.14,2.08.77,2.83,1.09.75.31,1.19.31,1.76.09.58-.23,1.28-.68,1.72-1.14.44-.46.61-.91,1.14-1.03.53-.12,1.41.1,2.22,0,.81-.11,1.55-.55,2.12-.99.57-.44.98-.88,1.59-.99.61-.11,1.41.11,2.07.53.66.42,1.18,1.03,2.52,1.46,1.34.43,3.49.68,4.95.87,1.46.19,2.21.31,2.88-.16.67-.48,1.25-1.57,1.88-2.34.63-.77,1.31-1.23,2.36-1.23s2.49.46,3.37,1.1c.88.65,1.21,1.48,1.97,2.15.76.67,1.94,1.17,2.76,1.48.83.31,1.3.42,1.83.71.54.29,1.13.76,1.55,1.31.42.54.65,1.16,1.18,1.72.53.56,1.35,1.06,2.32,1.38.98.31,2.11.44,2.93.8.82.36,1.32.96,2.23,1.46.91.5,2.24.89,3.32,1.19,1.09.3,1.94.5,2.57.89.64.39,1.06.95,1.78,1.33.72.38,1.72.57,2.69.99.97.42,1.9,1.09,2.69,1.79.79.7,1.46,1.44,2.36,1.68.91.24,2.05,0,3.53-.33,1.48-.32,3.29-.72,4.71-.87,1.42-.16,2.46-.08,3.2.05.73.13,1.16.3,1.37.42.21.12.21.18.2,1.68,0,1.5-.02,4.45,0,17.18.03,12.73.1,35.26.14,46.67.04,11.41.04,11.71.04,12.21,0,.5,0,1.21.37,1.87.36.66,1.09,1.27,1.61,1.92.52.64.83,1.32,1.23,1.84.39.52.87.88,1.46,1.27.6.39,1.32.82,1.83,1.5.51.68.81,1.61,1.13,2.56.32.95.67,1.93,1,2.79.33.87.65,1.62.75,2.42.11.8.02,1.65-.16,2.45-.17.8-.42,1.56-.54,2.3-.11.74-.08,1.46.13,2.13.2.66.58,1.26,1.01,1.73.43.47.9.82,1.53,1.01.63.19,1.42.22,1.65.57.24.35-.08,1.01-.09,1.46-.02.46.27.71.71,1.05.44.35,1.04.79,1.18,1.27.14.49-.17,1.02-.11,1.5.06.47.5.88.87,1.27.36.39.65.77.52,1.29-.13.52-.66,1.18-.6,1.97.06.79.72,1.7,1.13,2.52.41.82.57,1.54.66,2.28.09.74.13,1.5.66,2.23.54.74,1.57,1.46,1.81,2.2.24.74-.33,1.5-.27,2.19.06.69.76,1.32.87,1.94.11.61-.36,1.21-.72,1.79-.36.58-.61,1.15-.49,1.78.13.63.63,1.32.8,1.87.17.55.02.96-.31,1.37-.33.41-.83.82-.91,1.42-.08.6.27,1.39.38,2.08.11.69-.02,1.29-.31,1.9-.3.61-.77,1.24-1.02,1.94-.25.69-.28,1.45-.42,2.19-.14.74-.39,1.46-.87,2.16-.47.69-1.17,1.35-1.65,2.02-.49.66-.77,1.32-1.35,1.95-.58.63-1.46,1.23-1.76,1.92-.3.69-.02,1.48.28,2.33.3.85.61,1.76.44,2.82-.17,1.05-.83,2.25-1.35,3.27-.52,1.02-.9,1.87-.72,2.99.17,1.12.9,2.5,1.42,3.75.52,1.24.83,2.35.93,3.64.09,1.29-.03,2.77-.24,3.98-.21,1.21-.49,2.16-1.31,3.42-.82,1.26-2.17,2.83-2.91,4.22-.74,1.38-.87,2.58-1.31,3.48-.44.9-1.2,1.5-2.03,2.16s-1.75,1.38-1.4,2.57c.35,1.18,1.95,2.82,3.15,4.34,1.2,1.53,1.98,2.94,1.92,3.56-.06.61-.98.43-2.19.19-1.21-.24-2.72-.52-4.49-.33-1.76.19-3.78.85-6.28,1.94-2.5,1.09-5.49,2.6-9.33,4.56-3.84,1.97-8.53,4.39-10.66,6.15s-1.68,2.86-1.91,3.62c-.22.76-1.1,1.16-1.87,1.29-.77.13-1.43-.03-2.49.79-1.05.82-2.5,2.61-4.39,4.2-1.89,1.59-4.22,2.97-5.81,3.93-1.59.96-2.44,1.5-3.04,2.24-.6.74-.94,1.68-1.81,2.83-.87,1.15-2.25,2.5-4.22,4.25-1.97,1.75-4.52,3.89-6.55,5.24-2.03,1.35-3.54,1.92-8.99,4.86-5.45,2.94-14.83,8.26-20.64,11.76s-8.04,5.16-9.74,6.8c-1.7,1.64-2.86,3.24-5.29,4.97-2.42,1.73-6.11,3.59-9.46,6.09-3.35,2.5-6.37,5.65-8.48,8.23-2.11,2.58-3.31,4.6-4.41,6.42-1.1,1.83-2.11,3.46-3.37,5.67-1.26,2.2-2.77,4.97-4.25,8.34-1.48,3.37-2.93,7.33-4.16,11.24-1.23,3.9-2.24,7.74-2.96,11.21-.72,3.46-1.17,6.55-1.1,10.2.06,3.65.63,7.87,1.76,12.28,1.13,4.41,2.83,9,3.9,12.91,1.07,3.9,1.51,7.11,1.95,10.1.44,2.99.88,5.76,1.23,7.9.35,2.14.6,3.65.35,4.69-.25,1.04-1.01,1.61-2.17,2.01-1.17.41-2.74.66-4.19,1.07-1.45.41-2.77.98-3.42,1.78-.64.8-.61,1.84-1.02,2.34-.41.5-1.26.47-1.95.11-.69-.36-1.23-1.05-1.79-1.46-.57-.41-1.17-.54-1.68-.94-.52-.41-.96-1.1-1.48-1.73-.52-.63-1.12-1.2-1.75-1.78-.63-.58-1.29-1.18-2-1.62-.71-.44-1.46-.72-2.38-.94-.91-.22-1.98-.38-2.85-.66-.87-.28-1.53-.69-2.31-.98-.79-.28-1.7-.44-2.6-.41-.9.03-1.78.25-2.91.35-1.13.09-2.52.06-3.64.09-1.12.03-1.97.12-2.9.14-.93.02-1.94-.05-3.21-.27-1.28-.22-2.82-.6-4.23-1.53-1.42-.93-2.71-2.41-3.79-3.57-1.09-1.17-1.97-2.01-2.85-2.44-.88-.43-1.76-.43-2.83-.87-1.07-.44-2.33-1.32-3.53-1.53-1.2-.21-2.33.27-3.3.09-.98-.17-1.79-.99-2.52-2-.72-1.01-1.35-2.2-2.44-2.99-1.09-.79-2.63-1.17-4.34-1.37-1.72-.2-3.6-.24-5.13-.44-1.53-.2-2.69-.58-3.21-1.23-.52-.65-.39-1.56-.55-2.42-.16-.87-.6-1.68-1.04-2.64-.44-.96-.88-2.06-1.23-3.34-.35-1.27-.6-2.72-1.51-5.23-.91-2.5-2.49-6.06-3.9-8.3-1.42-2.23-2.68-3.15-3.72-4.45-1.04-1.31-1.86-3.01-2.01-4.67-.16-1.67.35-3.31.35-5.19s-.5-4.03-1.42-5.67c-.91-1.64-2.24-2.77-2.49-3.81-.25-1.04.57-1.98.66-4.12.09-2.14-.54-5.48-1.51-7.65-.98-2.17-2.3-3.18-3.78-3.81-1.48-.63-3.12-.88-4.69-2.24-1.57-1.35-3.08-3.81-4.34-5.45-1.26-1.64-2.27-2.46-2.77-3.71-.5-1.26-.5-2.96-1.7-5.29-1.2-2.33-3.59-5.29-5.16-7.21-1.57-1.92-2.33-2.8-3.56-3.68-1.23-.88-2.93-1.76-4.22-3.15-1.29-1.39-2.17-3.27-3.02-5.45-.85-2.17-1.67-4.63-2.83-7.3-1.17-2.67-2.68-5.57-3.65-8.37-.98-2.8-1.42-5.51-2.77-7.68-1.35-2.17-3.62-3.81-4.56-5.85-.94-2.05-.57-4.5-1.13-6.55-.57-2.05-2.08-3.68-2.93-5.1-.85-1.42-1.04-2.61-1.7-3.62-.66-1.01-1.79-1.83-3.24-2.83-1.45-1.01-3.21-2.2-4.75-3.81-1.54-1.61-2.86-3.62-4.31-4.85-1.45-1.23-3.02-1.67-4.19-2.2-1.16-.54-1.92-1.17-2.52-2.36-.6-1.2-1.04-2.96-2.36-4.79-1.32-1.83-3.53-3.71-5.54-5.04-2.01-1.32-3.84-2.08-5.63-2.14-1.79-.06-3.56.57-5.48.6-1.92.03-4-.54-6.11-.85-2.11-.31-4.25-.38-5.82-.41-1.57-.03-2.58-.03-3.68-.03s-2.3,0-3.87-.69c-1.57-.69-3.53-2.08-5.1-2.77-1.57-.69-2.77-.69-3.56.28-.79.98-1.16,2.93-2.36,3.68-1.2.76-3.21.31-5.13.5-1.92.19-3.75,1.01-5.1,1.95-1.35.94-2.24,2.01-3.31,4.06-1.07,2.05-2.33,5.07-3.46,7.55-1.13,2.49-2.14,4.44-2.86,6.33-.72,1.89-1.17,3.71-.98,5.01.19,1.29,1.01,2.05.31,2.96-.69.91-2.9,1.98-4.6,3.46-1.7,1.48-2.9,3.37-3.75,5-.85,1.64-1.35,3.02-2.77,3.24-1.42.22-3.75-.72-5.38-1.26-1.64-.54-2.58-.66-3.49-.57-.91.09-1.79.41-2.93-.35-1.13-.76-2.52-2.58-4.25-3.78-1.73-1.2-3.81-1.76-5.29-2.17-1.48-.41-2.36-.66-3.34-1.79-.98-1.13-2.05-3.15-4-4.12-1.95-.98-4.78-.91-7.15-1.51-2.36-.6-4.25-1.86-5.73-3.53-1.48-1.67-2.55-3.75-3.9-5.07-1.35-1.32-2.99-1.89-4.91-3.02-1.92-1.13-4.12-2.83-5.67-4.41-1.54-1.57-2.42-3.02-2.93-4.6-.5-1.57-.63-3.27-1.61-5.48-.98-2.2-2.8-4.91-3.75-7.15-.94-2.23-1.01-4-.98-5.95.03-1.95.16-4.09.03-5.7-.13-1.61-.5-2.68-1.48-3.9s-2.55-2.61-3.53-3.97c-.98-1.35-1.35-2.67-1.76-4.44-.41-1.76-.85-3.97-1.76-5.92-.91-1.95-2.3-3.65-4.38-5.35-2.08-1.7-4.85-3.4-7.78-5.13-2.93-1.73-6.01-3.49-8.19-5.51-2.17-2.01-3.43-4.28-5.19-6.2-1.76-1.92-4.03-3.49-6.3-5.01-2.27-1.51-4.53-2.96-6.23-4.69-1.7-1.73-2.83-3.75-4.34-5.63-1.51-1.89-3.4-3.65-4.88-4.8-1.48-1.15-2.55-1.69-4.02-2.61Z"/>
</svg>