<?xml version="1.0" encoding="UTF-8"?>
<svg id="Layer_1" xmlns="http://www.w3.org/2000/svg" version="1.1" viewBox="0 0 409 333">
  <!-- Generator: Adobe Illustrator 29.1.0, SVG Export Plug-In . SVG Version: 2.1.0 Build 142)  -->
  <defs>
    <style>
      .st0 {
        fill: none;
        fill-rule: evenodd;
        stroke: #231f20;
        stroke-miterlimit: 10;
      }
    </style>
  </defs>
  <path class="st0" d="M54.5,10.5c3.87.2,8.63,1.19,12,2,8.63,2.07,17.85,1.61,26,3.5,9.86,2.29,20.21,1.84,29.5,4,5.71,1.33,10.35.17,16,1.5,14.35,3.37,31.09,3.17,45.5,6.5,7.14,1.65,13.43.37,20.5,2,24.73,5.7,53.16,4.27,78,10,6.18,1.43,12.4.74,18,2,6.33.5,12.67,1,19,1.5,14.87,3.38,32.42,2.16,47.5,5.5,7.23,1.6,26.89-.03,31.5,3,.44.65.45,1.23.5,2.5-2.01,3.36-.48,10.96-1.5,15.5-2.17,9.64-1.36,21.7-3.5,31.5v6c-1.6,7.23-.28,15.78-2,23.5-3.95,17.75-1.59,38.69-5.5,56.5-.92,4.17-.26,8.62-1,12-1.77,8.05-.34,16.96-2,24.5-2.1,9.57-.51,20.44-2.5,29.5v7.5c-2.91,13.12-1.08,28.74-4,42-1.01,4.59.59,16.63-2.5,18.5-1.67.89-20.86-.68-24.5-1.5-7.02-1.58-15.04-.32-22.5-2-15.32-3.45-33.21-2.09-48.5-5.5-8.34-1.86-16.73-.14-25-2-5.67-1.28-12.22-.59-18.5-2-19.17-4.3-40.94-2.74-60-7-4.83-.33-9.67-.67-14.5-1-19.24-4.38-41.31-3.12-60.5-7.5-5.83-.5-11.67-1-17.5-1.5-12.71-2.92-26.9-1.99-40-5-9.28-2.13-21.6-4.15-31.5-4.5-.65-1.21-.9-1.42-1-3.5,3.27-5.19,3.15-18.43,5-25.5,4.06-15.48,5.1-33.28,9-49l1-10c6.18-25.14,6.88-53.15,13-78.5,1.66-6.88.8-13.06,2.5-20,3.3-13.52,3.16-28.42,6.5-42.5,1.75-7.37,1.56-15.5,3.5-23.5,1.34-5.53,2.67-12.27,3-18.5.88-.32.49-.1,1-.5Z"/>
</svg>